<svg xmlns="http://www.w3.org/2000/svg" xmlns:xlink="http://www.w3.org/1999/xlink" width="596.902" height="75.685" viewBox="0 0 596.902 75.685">
  <defs>
    <clipPath id="clip-path">
      <rect id="Rectangle_1" data-name="Rectangle 1" width="596.902" height="75.685" transform="translate(0 0)" fill="none"/>
    </clipPath>
    <clipPath id="clip-path-2">
      <path id="Path_16" data-name="Path 16" d="M367.047,35.418A27.113,27.113,0,1,1,394.16,62.532a27.145,27.145,0,0,1-27.113-27.114M394.16,0a35.418,35.418,0,1,0,35.419,35.418A35.459,35.459,0,0,0,394.16,0Z" fill="none"/>
    </clipPath>
    <linearGradient id="linear-gradient" x1="-5.064" y1="1.068" x2="-5.05" y2="1.068" gradientUnits="objectBoundingBox">
      <stop offset="0" stop-color="#751a7b"/>
      <stop offset="1" stop-color="#48237e"/>
    </linearGradient>
  </defs>
  <g id="Group_7" data-name="Group 7" transform="translate(-174 -518)">
    <g id="Group_2" data-name="Group 2" transform="translate(174 518)">
      <g id="Group_1" data-name="Group 1" clip-path="url(#clip-path)">
        <path id="Path_1" data-name="Path 1" d="M0,17.148a66.524,66.524,0,0,1,11.02-.858c5.676,0,9.834,1.32,12.474,3.7a11.958,11.958,0,0,1,3.893,9.305c0,4.025-1.188,7.193-3.431,9.5-3.036,3.234-7.986,4.884-13.595,4.884a19.764,19.764,0,0,1-4.62-.4V61.1H0ZM5.741,38.6a19.256,19.256,0,0,0,4.752.462c6.93,0,11.153-3.366,11.153-9.5,0-5.873-4.158-8.71-10.493-8.71a24.112,24.112,0,0,0-5.412.461Z" fill="#1a1818"/>
        <path id="Path_2" data-name="Path 2" d="M62.169,44.865c0,11.813-8.183,16.961-15.9,16.961-8.646,0-15.311-6.336-15.311-16.433,0-10.691,7-16.96,15.839-16.96,9.173,0,15.376,6.665,15.376,16.432m-25.342.33c0,7,4.026,12.275,9.7,12.275,5.544,0,9.7-5.213,9.7-12.407,0-5.411-2.705-12.275-9.568-12.275s-9.834,6.336-9.834,12.407" fill="#1a1818"/>
        <path id="Path_3" data-name="Path 3" d="M71.346,29.159,75.57,45.394c.924,3.563,1.782,6.863,2.376,10.163h.2c.725-3.234,1.782-6.666,2.838-10.1l5.214-16.3h4.882L96.029,45.13c1.187,3.827,2.111,7.193,2.838,10.427h.2A95.987,95.987,0,0,1,101.506,45.2l4.554-16.037H111.8L101.506,61.1h-5.28L91.343,45.856A106.515,106.515,0,0,1,88.5,35.363h-.132a94.56,94.56,0,0,1-2.9,10.559L80.322,61.1h-5.28L65.407,29.159Z" fill="#1a1818"/>
        <path id="Path_4" data-name="Path 4" d="M120.187,46.186c.131,7.853,5.147,11.087,10.954,11.087a20.994,20.994,0,0,0,8.843-1.65l.991,4.157a25.872,25.872,0,0,1-10.625,1.98c-9.834,0-15.707-6.467-15.707-16.1s5.675-17.224,14.98-17.224c10.428,0,13.2,9.173,13.2,15.047a21.724,21.724,0,0,1-.2,2.706Zm17.026-4.158c.065-3.7-1.519-9.438-8.052-9.438-5.873,0-8.447,5.412-8.909,9.438Z" fill="#1a1818"/>
        <path id="Path_5" data-name="Path 5" d="M150.018,39.124c0-3.762-.065-7-.264-9.965h5.081l.2,6.269h.263c1.452-4.289,4.95-7,8.844-7a6.269,6.269,0,0,1,1.649.2v5.477a8.771,8.771,0,0,0-1.979-.2c-4.092,0-7,3.1-7.787,7.457a16.336,16.336,0,0,0-.264,2.706V61.1h-5.742Z" fill="#1a1818"/>
        <path id="Path_6" data-name="Path 6" d="M174.174,46.186c.131,7.853,5.147,11.087,10.955,11.087a20.992,20.992,0,0,0,8.842-1.65l.991,4.157a25.872,25.872,0,0,1-10.625,1.98c-9.834,0-15.707-6.467-15.707-16.1s5.675-17.224,14.98-17.224c10.428,0,13.2,9.173,13.2,15.047a21.724,21.724,0,0,1-.2,2.706ZM191.2,42.028c.065-3.7-1.519-9.438-8.052-9.438-5.873,0-8.447,5.412-8.909,9.438Z" fill="#1a1818"/>
        <path id="Path_7" data-name="Path 7" d="M231.591,14.244V52.851c0,2.838.065,6.072.263,8.249H226.64l-.263-5.543h-.132a11.817,11.817,0,0,1-10.889,6.27c-7.721,0-13.661-6.534-13.661-16.235-.066-10.625,6.533-17.159,14.32-17.159,4.884,0,8.184,2.31,9.636,4.884h.132V14.244ZM225.783,42.16a10.252,10.252,0,0,0-.264-2.442,8.542,8.542,0,0,0-8.382-6.731c-6,0-9.569,5.279-9.569,12.341,0,6.467,3.168,11.813,9.438,11.813a8.731,8.731,0,0,0,8.513-6.93,10.089,10.089,0,0,0,.264-2.508Z" fill="#1a1818"/>
        <path id="Path_8" data-name="Path 8" d="M254.957,61.1c.132-2.178.264-5.412.264-8.25V14.244h5.742V34.306h.132c2.046-3.564,5.741-5.873,10.889-5.873,7.918,0,13.529,6.6,13.462,16.3,0,11.417-7.193,17.093-14.32,17.093-4.62,0-8.315-1.782-10.691-6.006h-.2l-.263,5.28Zm6.006-12.8a10.875,10.875,0,0,0,.264,2.112,8.961,8.961,0,0,0,8.711,6.8c6.071,0,9.7-4.95,9.7-12.275,0-6.4-3.3-11.879-9.5-11.879a9.261,9.261,0,0,0-8.844,7.127,11.453,11.453,0,0,0-.329,2.376Z" fill="#1a1818"/>
        <path id="Path_9" data-name="Path 9" d="M294.425,29.159l7,18.875c.726,2.111,1.518,4.619,2.046,6.533h.132c.594-1.914,1.254-4.356,2.046-6.665l6.335-18.743h6.137L309.4,51.927c-4.157,10.955-6.995,16.565-10.955,20a15.741,15.741,0,0,1-7.127,3.761L289.871,70.8a15.35,15.35,0,0,0,5.081-2.838,17.6,17.6,0,0,0,4.884-6.468,4.165,4.165,0,0,0,.462-1.385,5.086,5.086,0,0,0-.395-1.518L288.089,29.159Z" fill="#1a1818"/>
        <path id="Path_10" data-name="Path 10" d="M447.533,26.079h.949V20.89q0-2.088.111-3.275a4.849,4.849,0,0,1,.617-2.041,3.889,3.889,0,0,1,1.455-1.439,4.133,4.133,0,0,1,2.12-.554,4.268,4.268,0,0,1,2.975,1.234,3.667,3.667,0,0,1,1.122,2.009,18.17,18.17,0,0,1,.238,3.37v5.885h3.164a4.05,4.05,0,0,1,2.8.87,2.87,2.87,0,0,1,.965,2.231,2.5,2.5,0,0,1-1.377,2.436,8.927,8.927,0,0,1-3.938.7H457.12V48.195a25.766,25.766,0,0,0,.142,3.116,3.174,3.174,0,0,0,.759,1.772,2.6,2.6,0,0,0,2.01.68,10.687,10.687,0,0,0,2.056-.269,10.707,10.707,0,0,1,2.025-.269,2.6,2.6,0,0,1,1.882.838,2.818,2.818,0,0,1,.839,2.073,3.468,3.468,0,0,1-2.278,3.2,15.417,15.417,0,0,1-6.549,1.107,11.317,11.317,0,0,1-6.139-1.361,6.309,6.309,0,0,1-2.736-3.765,25.5,25.5,0,0,1-.649-6.422V32.312h-1.139a4.111,4.111,0,0,1-2.847-.886,2.891,2.891,0,0,1-.981-2.246,2.79,2.79,0,0,1,1.029-2.231,4.508,4.508,0,0,1,2.989-.87" fill="#96989c"/>
        <path id="Path_11" data-name="Path 11" d="M494.107,45h-16.9a11.465,11.465,0,0,0,1.187,5.189,7.939,7.939,0,0,0,7.293,4.525,10.326,10.326,0,0,0,2.831-.365,9.211,9.211,0,0,0,2.484-1.139,18.972,18.972,0,0,0,2.215-1.66q1.012-.886,2.626-2.4a2.836,2.836,0,0,1,1.9-.569,3.125,3.125,0,0,1,2.151.727,2.6,2.6,0,0,1,.823,2.057A5.615,5.615,0,0,1,499.8,54.1a10.84,10.84,0,0,1-2.768,3.006,15.734,15.734,0,0,1-4.65,2.389,20.033,20.033,0,0,1-6.439.949q-8.322,0-12.941-4.746t-4.619-12.877a21.491,21.491,0,0,1,1.139-7.1,15.663,15.663,0,0,1,3.322-5.616,14.4,14.4,0,0,1,5.379-3.591,19.31,19.31,0,0,1,7.087-1.249A16.805,16.805,0,0,1,494,27.392a14.048,14.048,0,0,1,5.426,5.521,14.52,14.52,0,0,1,1.8,6.9q0,3.26-1.867,4.224a11.617,11.617,0,0,1-5.251.965m-16.9-4.9h15.662q-.316-4.428-2.389-6.629a7.155,7.155,0,0,0-5.458-2.2,6.911,6.911,0,0,0-5.3,2.23,11.1,11.1,0,0,0-2.516,6.6" fill="#96989c"/>
        <path id="Path_12" data-name="Path 12" d="M508.5,55.187V17.726a5.828,5.828,0,0,1,1.155-3.923,3.917,3.917,0,0,1,3.116-1.329,4.088,4.088,0,0,1,3.164,1.313,5.659,5.659,0,0,1,1.2,3.939V55.187a5.616,5.616,0,0,1-1.218,3.939,4.1,4.1,0,0,1-3.149,1.313,3.9,3.9,0,0,1-3.084-1.36,5.743,5.743,0,0,1-1.187-3.892" fill="#96989c"/>
        <path id="Path_13" data-name="Path 13" d="M526.536,26.079h.949V20.89q0-2.088.111-3.275a4.848,4.848,0,0,1,.617-2.041,3.888,3.888,0,0,1,1.455-1.439,4.133,4.133,0,0,1,2.12-.554,4.268,4.268,0,0,1,2.975,1.234,3.667,3.667,0,0,1,1.122,2.009,18.17,18.17,0,0,1,.238,3.37v5.885h3.164a4.05,4.05,0,0,1,2.8.87,2.87,2.87,0,0,1,.965,2.231,2.5,2.5,0,0,1-1.377,2.436,8.927,8.927,0,0,1-3.938.7h-1.614V48.195a25.758,25.758,0,0,0,.142,3.116,3.173,3.173,0,0,0,.759,1.772,2.6,2.6,0,0,0,2.01.68,10.687,10.687,0,0,0,2.056-.269,10.707,10.707,0,0,1,2.025-.269,2.6,2.6,0,0,1,1.882.838,2.818,2.818,0,0,1,.839,2.073,3.468,3.468,0,0,1-2.278,3.2,15.417,15.417,0,0,1-6.549,1.107,11.317,11.317,0,0,1-6.139-1.361,6.309,6.309,0,0,1-2.736-3.765,25.5,25.5,0,0,1-.649-6.422V32.312h-1.139a4.111,4.111,0,0,1-2.847-.886,2.891,2.891,0,0,1-.981-2.246,2.792,2.792,0,0,1,1.028-2.231,4.513,4.513,0,0,1,2.99-.87" fill="#96989c"/>
        <path id="Path_14" data-name="Path 14" d="M553.366,21.3a4.553,4.553,0,0,1-3.084-1.107A3.914,3.914,0,0,1,549,17.062a3.893,3.893,0,0,1,1.313-3.021,4.413,4.413,0,0,1,3.053-1.187,4.528,4.528,0,0,1,2.974,1.076,3.836,3.836,0,0,1,1.3,3.132,3.951,3.951,0,0,1-1.266,3.116,4.373,4.373,0,0,1-3.006,1.123m4.272,8.923V55.187A5.566,5.566,0,0,1,556.4,59.11a4.086,4.086,0,0,1-3.132,1.329,3.9,3.9,0,0,1-3.084-1.36A5.743,5.743,0,0,1,549,55.187V30.477a5.546,5.546,0,0,1,1.187-3.86,3.985,3.985,0,0,1,3.084-1.3,4.134,4.134,0,0,1,3.132,1.3,5.017,5.017,0,0,1,1.235,3.607" fill="#96989c"/>
        <path id="Path_15" data-name="Path 15" d="M588.075,56.485,580.45,43.956l-4.682,4.43v6.865a5.278,5.278,0,0,1-1.314,3.844,4.108,4.108,0,0,1-3.021,1.345,3.909,3.909,0,0,1-3.133-1.329,5.886,5.886,0,0,1-1.139-3.923V18.359a7.313,7.313,0,0,1,1.108-4.381,3.692,3.692,0,0,1,3.164-1.5,3.961,3.961,0,0,1,3.164,1.36,6.015,6.015,0,0,1,1.171,4.018V38.8l9.713-10.188a23.706,23.706,0,0,1,2.752-2.594,3.8,3.8,0,0,1,2.31-.7,3.738,3.738,0,0,1,2.689,1.027,3.422,3.422,0,0,1,1.076,2.579q0,1.9-3.512,5.062L586.208,38.2l8.859,13.922q.981,1.55,1.408,2.357a3.28,3.28,0,0,1,.427,1.534,4.523,4.523,0,0,1-1.123,3.243,3.882,3.882,0,0,1-2.958,1.187,3.3,3.3,0,0,1-2.436-.854,20.6,20.6,0,0,1-2.31-3.1" fill="#96989c"/>
      </g>
    </g>
    <g id="Group_4" data-name="Group 4" transform="translate(174 518)">
      <g id="Group_3" data-name="Group 3" clip-path="url(#clip-path-2)">
        <rect id="Rectangle_2" data-name="Rectangle 2" width="70.837" height="70.837" transform="translate(358.742 0)" fill="url(#linear-gradient)"/>
      </g>
    </g>
  </g>
</svg>
